<svg width="48" height="48" viewBox="0 0 48 48" fill="none" xmlns="http://www.w3.org/2000/svg">
<g clip-path="url(#clip0_211_827)">
<path d="M44.9965 13.4113C44.9965 13.4451 44.9965 13.4873 44.9877 13.5127C44.9437 13.8424 44.9437 14.1721 44.9701 14.5102C44.9877 14.5947 45.0053 14.6793 45.0758 14.7469C45.1903 14.8737 45.3664 14.8484 45.4369 14.6962C45.4722 14.6201 45.4722 14.544 45.4545 14.4679C45.3664 14.1467 45.3488 13.8086 45.34 13.4789C45.34 13.462 45.34 13.4366 45.34 13.4113C45.4369 13.4028 45.525 13.3944 45.6042 13.3944C45.6659 13.3859 45.7188 13.3774 45.7628 13.3521C45.8949 13.2845 45.8949 13.1408 45.754 13.0731C45.7011 13.0478 45.6307 13.0393 45.569 13.0393C45.3488 13.0478 45.1287 13.0478 44.9084 13.0478C44.8292 13.0478 44.7499 13.0562 44.6706 13.0647C44.6266 13.0731 44.5737 13.0731 44.5385 13.0985C44.4768 13.1238 44.4417 13.1661 44.4417 13.2253C44.4504 13.2845 44.4768 13.3183 44.5385 13.3436C44.5737 13.369 44.6178 13.3774 44.6618 13.3774C44.7675 13.3859 44.882 13.4028 44.9965 13.4113ZM47.4186 13.8001C47.4186 13.8086 47.4274 13.817 47.4274 13.817C47.4627 14.0453 47.4979 14.2651 47.5243 14.4849C47.5332 14.5609 47.542 14.6286 47.5948 14.6877C47.7093 14.8314 47.8855 14.8145 47.9647 14.6624C48 14.5863 48.0087 14.5102 47.9912 14.4257C47.9383 14.1721 47.9119 13.9185 47.859 13.6733C47.8238 13.5212 47.7798 13.3774 47.7357 13.2422C47.7093 13.1577 47.6477 13.0985 47.542 13.09C47.4363 13.0731 47.357 13.1238 47.3129 13.1999C47.2601 13.2675 47.2161 13.3352 47.1808 13.4113C47.1192 13.5465 47.0663 13.6818 46.9959 13.8086C46.987 13.8424 46.9782 13.8678 46.9606 13.8931C46.9519 13.8762 46.9431 13.8678 46.9431 13.8678C46.8285 13.6564 46.7228 13.4451 46.6083 13.2422C46.5907 13.2253 46.5819 13.2084 46.5731 13.1915C46.5203 13.1154 46.4586 13.0731 46.3617 13.0731C46.2736 13.0816 46.2031 13.1323 46.1592 13.2084C46.1415 13.2422 46.1415 13.2675 46.1327 13.3014C46.0975 13.5719 46.0534 13.8424 46.0182 14.1129C46.0006 14.2651 45.9918 14.4172 45.9918 14.5694C45.983 14.6032 45.9918 14.6455 46.0094 14.6793C46.027 14.7469 46.0799 14.7892 46.1503 14.7976C46.2384 14.8061 46.3 14.7807 46.3265 14.7131C46.3529 14.6624 46.3617 14.6201 46.3705 14.5778C46.4058 14.4257 46.4322 14.282 46.4586 14.1383C46.4762 14.0537 46.485 13.9861 46.5115 13.8931C46.5291 13.9269 46.5466 13.9523 46.5643 13.9776C46.6435 14.0791 46.7228 14.1805 46.8197 14.2651C46.9166 14.3327 46.9959 14.3242 47.0751 14.2482C47.0928 14.2312 47.1016 14.2228 47.1192 14.2059C47.1985 14.0875 47.2954 13.9692 47.3746 13.8508C47.3922 13.8339 47.401 13.817 47.4186 13.8001Z" fill="#3A3B7B"/>
<path d="M27.1244 13.5774C27.0632 13.738 27.0515 13.8538 27.0798 13.95C27.111 14.0808 27.192 14.1236 27.302 14.0903C28.3366 13.8448 30.6051 14.5417 31.445 14.736C31.6431 14.7767 31.8042 14.5313 31.6691 14.3113C31.4718 14.0982 29.2043 13.1859 28.3391 13.1362C27.9999 13.1178 27.3936 13.0343 27.1244 13.5774Z" fill="#3A3B7B"/>
<path d="M35.9904 10.6244C36.1006 10.6854 36.1622 10.7437 36.1927 10.8088C36.238 10.8942 36.2141 10.9533 36.1379 10.9834C35.4541 11.3037 34.5441 12.6828 34.1768 13.1585C34.0877 13.2679 33.8823 13.2043 33.8513 13.0244C33.8577 12.8209 34.6643 11.3243 35.1145 10.9167C35.2915 10.7575 35.5837 10.4453 35.9904 10.6244Z" fill="#3A3B7B"/>
<path d="M30.5444 9.94541C30.6769 9.84959 30.8145 9.81602 30.8848 9.87828C31.9166 10.7252 32.4637 12.0663 32.8025 13.2941C32.8153 13.3227 32.8161 13.3638 32.8059 13.4066C32.8017 13.4432 32.7738 13.4818 32.7296 13.5118C32.6823 13.5448 32.6416 13.5548 32.6225 13.5264C32.1703 12.936 29.5875 10.6392 30.5444 9.94541Z" fill="#3A3B7B"/>
<path d="M8.69524 24.6285C8.94253 24.4518 9.21137 24.3047 9.49586 24.1905C9.7935 24.1089 10.1107 24.1224 10.3997 24.2291C10.6885 24.3359 10.9334 24.53 11.0971 24.7822C11.2435 25.0337 11.3008 25.3241 11.2604 25.6096C11.2199 25.8951 11.084 26.1602 10.8729 26.3651C10.7093 26.5312 10.5235 26.6759 10.3205 26.7954C9.41582 27.3564 8.50308 27.8866 7.59039 28.4475C7.40363 28.5879 7.20551 28.7139 6.99793 28.8241C6.68217 28.9752 6.32132 29.0157 5.97776 28.9385C5.6342 28.8614 5.32955 28.6713 5.11648 28.4014C4.95719 28.2103 4.82277 28.0013 4.71616 27.779C3.8515 26.0347 2.95481 24.2981 2.12217 22.523C1.73787 21.7546 1.42563 20.8709 1.12139 20.018C0.989767 19.7702 0.964063 19.4829 1.04976 19.2171C1.13545 18.9514 1.32577 18.7282 1.58025 18.5951C1.83473 18.462 2.13327 18.4294 2.4124 18.5043C2.69152 18.5791 2.92921 18.7556 3.0749 18.996C3.52271 19.5672 3.91911 20.1739 4.25981 20.8095C5.12448 22.3463 5.94912 23.8831 6.78176 25.3738C6.83024 25.4562 6.8837 25.5357 6.94188 25.612C7.56859 25.3591 8.15803 25.0285 8.69524 24.6285Z" fill="#3A3B7B"/>
<path d="M17.6354 24.0924C15.6579 26.313 12.3433 25.7521 10.678 22.8936C9.49308 20.865 9.28493 17.5147 11.8629 15.4016C12.4135 14.9592 13.0717 14.6578 13.7764 14.5256C14.6404 14.4067 15.5214 14.553 16.2936 14.9435C17.0657 15.3341 17.6895 15.9489 18.0757 16.7002C19.4848 19.1591 19.2847 22.2942 17.6354 24.0924ZM16.8347 18.9132C16.6247 18.309 16.2032 17.7931 15.6418 17.4532C15.3242 17.2359 14.9382 17.1302 14.5489 17.154C14.1595 17.1778 13.7906 17.3296 13.5042 17.5838C12.3593 18.5597 12.1191 20.8727 12.9517 22.2481C13.0579 22.4724 13.2137 22.6717 13.4085 22.8322C13.6033 22.9926 13.8323 23.1102 14.0793 23.1768C14.3264 23.2434 14.5857 23.2574 14.839 23.2178C15.0923 23.1781 15.3335 23.0859 15.5458 22.9474C16.1664 22.4856 16.6217 21.8497 16.8484 21.1281C17.0751 20.4065 17.062 19.635 16.8108 18.9209L16.8347 18.9132Z" fill="#3A3B7B"/>
<path d="M25.7055 19.8815C25.5031 19.9233 25.294 19.9258 25.0904 19.8888C24.887 19.8518 24.6932 19.7762 24.5207 19.6663C24.3697 19.5834 24.2397 19.4695 24.14 19.3326C24.0405 19.1957 23.9737 19.0394 23.9446 18.8747C23.9155 18.7101 23.9248 18.5414 23.9718 18.3807C24.0188 18.2199 24.1024 18.0712 24.2164 17.9451C24.4152 17.6917 24.6973 17.5103 25.0171 17.4303C25.8518 17.1977 26.7112 17.056 27.579 17.0076C27.7697 16.9864 27.9629 17.0018 28.1472 17.0532C28.3316 17.1046 28.5033 17.1907 28.6525 17.3067C28.8016 17.4227 28.9252 17.5661 29.0158 17.7285C29.1064 17.8909 29.1623 18.069 29.1802 18.2525C29.4304 19.1534 29.4578 20.0981 29.2603 21.0111C28.5398 23.9618 26.0578 24.9761 23.2717 24.0309C22.4896 23.7782 21.8039 23.3074 21.3022 22.6785C20.633 21.9212 20.1586 21.0237 19.9171 20.0582C19.7214 19.1985 19.7428 18.3063 19.9797 17.4562C20.2164 16.606 20.6616 15.8225 21.2781 15.1711C21.8632 14.4631 22.6226 13.906 23.4879 13.5498C24.0346 13.2605 24.6744 13.1783 25.2813 13.3192C25.4189 13.3558 25.5439 13.4271 25.6432 13.5256C25.7425 13.6241 25.8125 13.7464 25.846 13.8797C25.8795 14.0129 25.8752 14.1524 25.8336 14.2835C25.792 14.4147 25.7147 14.5328 25.6095 14.6255C25.4096 14.7992 25.1924 14.9537 24.961 15.0866C24.2492 15.5216 23.6298 16.0822 23.1356 16.7387C22.8116 17.1635 22.5885 17.6512 22.482 18.1676C22.3755 18.684 22.3881 19.2166 22.5191 19.7278C22.7007 20.4249 23.1036 21.0506 23.672 21.5182C25.4333 23.0551 27.7231 21.572 27.3228 19.4742C26.7384 19.6126 26.226 19.7586 25.7055 19.8815Z" fill="#3A3B7B"/>
<path d="M36.466 24.2153C33.864 25.7522 30.9017 24.2153 30.2532 20.988C29.7809 18.6828 30.6776 15.4554 33.816 14.226C34.4838 13.97 35.208 13.8801 35.9216 13.9647C36.779 14.1153 37.5655 14.5204 38.1702 15.1229C38.7748 15.7253 39.1674 16.4947 39.2922 17.3227C39.8206 20.0659 38.6197 22.9936 36.466 24.2153ZM37.3708 19.0439C37.37 18.4056 37.1347 17.7879 36.7062 17.2996C36.4772 16.9976 36.1461 16.7812 35.7695 16.6873C35.3927 16.5935 34.9938 16.6279 34.6406 16.7848C33.2315 17.3688 32.2388 19.4896 32.5991 21.0495C32.6266 21.2943 32.7094 21.5304 32.8419 21.7412C32.9744 21.9521 33.1532 22.1326 33.366 22.2702C33.5787 22.4078 33.8202 22.4991 34.0736 22.5378C34.327 22.5764 34.5861 22.5615 34.8328 22.4941C35.5776 22.2444 36.2225 21.7777 36.6774 21.1591C37.1325 20.5406 37.3749 19.8011 37.3708 19.0439Z" fill="#3A3B7B"/>
<path d="M41.9235 24.8609C41.8843 25.1421 41.7302 25.3969 41.4952 25.5691C41.2602 25.7413 40.9636 25.8169 40.6706 25.7792C40.3776 25.7415 40.1122 25.5936 39.9328 25.368C39.7533 25.1425 39.6746 24.8578 39.7139 24.5766C39.7531 24.2953 39.9072 24.0406 40.1422 23.8684C40.3772 23.6962 40.6738 23.6206 40.9668 23.6583C41.2598 23.696 41.5252 23.8439 41.7047 24.0694C41.8841 24.295 41.9629 24.5797 41.9235 24.8609ZM41.227 14.495C41.3793 14.2718 41.6027 14.1018 41.8638 14.0104C42.125 13.919 42.4099 13.9111 42.6761 13.9878C42.9468 14.0528 43.1859 14.2051 43.3535 14.4191C43.5211 14.6331 43.607 14.8959 43.5969 15.1635C43.5616 15.5927 43.4947 16.0189 43.3967 16.4391C43.1325 17.8606 42.8763 19.2822 42.5961 20.6884C42.468 21.2494 42.2999 21.7872 42.1157 22.3558C42.0516 22.5336 41.9446 22.6942 41.8035 22.8246C41.7157 22.9227 41.6037 22.9979 41.4776 23.0433C41.3515 23.0888 41.2155 23.1029 41.0822 23.0845C40.949 23.0661 40.8226 23.0158 40.715 22.9381C40.6073 22.8604 40.5219 22.758 40.4665 22.6402C40.3713 22.4289 40.3196 22.2018 40.3143 21.9717C40.3143 21.0188 40.3143 20.0583 40.3784 19.0978C40.4872 17.727 40.7013 16.3657 41.0189 15.0252C41.0563 14.8456 41.1267 14.6738 41.227 14.518V14.495Z" fill="#3A3B7B"/>
<path fill-rule="evenodd" clip-rule="evenodd" d="M5.31263 31.0356C5.2181 31.2382 5.19218 31.464 5.23837 31.6813C5.2691 31.9677 5.3366 32.2495 5.43933 32.5201C5.56759 32.8515 5.71111 33.1792 5.88807 33.5831C5.92876 33.676 5.97129 33.773 6.01579 33.8751C6.25443 34.4223 6.55386 35.1216 6.95326 36.1336C7.06631 36.4211 7.1667 36.711 7.26779 37.0028C7.30862 37.1207 7.34961 37.2391 7.39156 37.3576C7.54193 37.7792 7.80067 38.1579 8.14364 38.458C8.28927 38.623 8.48244 38.7432 8.69904 38.8033C8.91988 38.8646 9.15474 38.8607 9.37323 38.7922C9.59171 38.7236 9.7836 38.5935 9.924 38.4188C10.0616 38.2475 10.1435 38.041 10.1594 37.8254C10.2487 37.4053 10.2182 36.9697 10.071 36.5647C9.83745 35.8922 9.57136 35.2187 9.26452 34.56L9.26311 34.5571C8.75833 33.5266 8.24523 32.5032 7.70784 31.4793L7.70382 31.4721C7.5465 31.2054 7.34206 30.9669 7.09967 30.7675C6.94232 30.5895 6.72526 30.4694 6.48556 30.428C6.24076 30.3858 5.98827 30.4283 5.77319 30.5482C5.56972 30.6597 5.40843 30.8304 5.31263 31.0356Z" fill="#3A3B7B"/>
<path fill-rule="evenodd" clip-rule="evenodd" d="M13.0224 28.498C12.2309 28.3013 11.4043 28.2726 10.6002 28.414C9.97743 28.4729 9.36488 28.6108 8.93953 28.8839C8.7232 29.0229 8.54829 29.2014 8.451 29.4282C8.35318 29.6564 8.34069 29.9172 8.42086 30.2079C8.56723 30.7403 8.75731 31.2579 8.94672 31.7739L8.9774 31.8575L8.97814 31.8594C9.54845 33.3584 10.1242 34.8524 10.7052 36.3412C10.7729 36.5758 10.8687 36.8022 10.9907 37.0156L10.993 37.0196C11.154 37.2848 11.3606 37.522 11.604 37.7213C11.7258 37.8308 11.8763 37.9066 12.0395 37.9405C12.2044 37.9746 12.3758 37.9647 12.5351 37.9117C12.6945 37.8588 12.8356 37.7649 12.9432 37.6402C13.049 37.5175 13.1183 37.3698 13.1438 37.2125C13.2488 36.7853 13.2151 36.3374 13.0473 35.9291C12.9949 35.7916 12.9538 35.6512 12.9105 35.5033C12.8961 35.454 12.8814 35.4039 12.866 35.3528C14.1959 34.8539 15.6109 34.183 16.1085 32.6223C16.3034 32.0829 16.3196 31.4989 16.155 30.9503C15.9902 30.4011 15.6521 29.9143 15.1874 29.5569C14.5548 29.0566 13.8159 28.6952 13.0224 28.498ZM10.8285 30.4123C10.8547 30.4051 10.8811 30.3984 10.9076 30.3921C11.7734 30.2615 12.6592 30.4355 13.4019 30.8821C13.7292 31.1006 13.8633 31.3434 13.8864 31.5769C13.9101 31.8174 13.819 32.0781 13.636 32.3286C13.2901 32.8018 12.659 33.1806 12.0889 33.2512C11.6733 32.3325 11.2512 31.3767 10.8285 30.4123Z" fill="#3A3B7B"/>
<path d="M18.2991 26.8165C19.2417 26.3988 20.4092 26.3266 21.3228 26.6203C21.5529 26.6847 21.7525 26.8238 21.8876 27.0139C22.0217 27.2029 22.0836 27.4306 22.0629 27.6583C22.0616 27.806 22.0238 27.9514 21.9527 28.0826C21.8803 28.2161 21.7755 28.3309 21.6471 28.4174C21.5187 28.5038 21.3706 28.5594 21.2151 28.5792C21.0596 28.5991 20.9015 28.5828 20.754 28.5316L20.7428 28.5277L20.7322 28.5223C20.6568 28.4844 20.5766 28.4559 20.4937 28.4373L20.4884 28.4362C19.8457 28.2724 19.2395 28.5438 19.0181 28.8774C18.9125 29.0364 18.8994 29.197 18.9873 29.343C19.0815 29.4994 19.3126 29.675 19.7801 29.8001C19.9087 29.8339 20.0405 29.8666 20.1741 29.8998C20.5438 29.9917 20.928 30.0872 21.2995 30.2194L21.3009 30.22C23.0148 30.8458 23.653 32.1421 23.4345 33.3613C23.2184 34.5669 22.1693 35.6642 20.5916 35.923C20.0176 36.0451 19.4201 36.0213 18.8585 35.854C18.2954 35.6861 17.7879 35.3799 17.3863 34.9654L17.3758 34.9546C17.2491 34.7985 17.1638 34.615 17.126 34.4204C17.0912 34.2448 17.1095 34.0633 17.1787 33.8972C17.2474 33.7322 17.3637 33.5894 17.5138 33.4853C17.6723 33.3673 17.8634 33.2965 18.0634 33.2818C18.2628 33.2671 18.4623 33.3087 18.6373 33.4013C18.8121 33.4824 18.9748 33.5858 19.1207 33.7088L19.1235 33.711C19.3817 33.9377 19.6941 33.9968 19.9937 33.942C20.2977 33.8866 20.5835 33.7139 20.7673 33.4849C20.95 33.2573 21.0233 32.987 20.9363 32.7245C20.8487 32.4601 20.5854 32.164 20.007 31.9163C19.8558 31.8547 19.699 31.805 19.5359 31.7566C19.492 31.7436 19.4472 31.7306 19.402 31.7174C19.2814 31.6823 19.1573 31.6461 19.0357 31.6062C18.9519 31.5788 18.8687 31.5528 18.7864 31.5271C18.5614 31.4567 18.3421 31.3882 18.131 31.2963C17.6715 31.1461 17.2746 30.8578 16.9992 30.474C16.7227 30.0887 16.5836 29.628 16.6025 29.1605C16.604 28.0214 17.3515 27.2367 18.2991 26.8165Z" fill="#3A3B7B"/>
<path d="M30.2487 26.695C30.0659 26.6094 29.8638 26.5687 29.6607 26.5767C29.4574 26.5847 29.2595 26.6411 29.0847 26.741C28.911 26.8401 28.7656 26.9789 28.6614 27.1451C28.5658 27.285 28.4997 27.4415 28.4667 27.6058C28.4338 27.7699 28.4346 27.9387 28.469 28.1025C28.503 28.313 28.5408 28.5177 28.578 28.7196C28.6397 29.0537 28.6998 29.3802 28.7394 29.7132L28.7409 29.7217C28.831 30.2438 28.8782 30.772 28.8825 31.3012L28.8829 31.3087C28.9137 31.8803 28.7108 32.4407 28.3177 32.8711L28.3114 32.8788C28.1835 33.0361 28.0125 33.1562 27.8174 33.2256C27.6225 33.295 27.4112 33.3109 27.2073 33.2716C27.0034 33.2324 26.8149 33.1394 26.6629 33.0032C26.5109 32.867 26.4013 32.6923 26.3465 32.4998C26.2297 32.094 26.1621 31.6766 26.1449 31.2559L26.3445 28.2068C26.3474 28.167 26.3508 28.1261 26.3542 28.0849C26.3618 27.9923 26.3696 27.8979 26.3728 27.81C26.3775 27.6805 26.3735 27.5474 26.3421 27.4214C26.3099 27.2926 26.2487 27.17 26.1402 27.0657C26.0328 26.9624 25.8878 26.8862 25.7053 26.8344C25.3753 26.7427 25.0962 26.7456 24.8637 26.8403C24.631 26.935 24.4717 27.1109 24.3589 27.314C24.2469 27.5154 24.175 27.7539 24.1206 27.9927C24.0803 28.17 24.0478 28.356 24.017 28.5331C24.0064 28.5941 23.9959 28.6541 23.9854 28.7123L23.9851 28.714C23.8202 29.6852 23.7712 30.6713 23.8388 31.6532C23.8515 32.1839 23.9667 32.7077 24.1789 33.1978C24.4183 33.8303 24.8518 34.3783 25.4223 34.7694C25.9941 35.1614 26.6763 35.3774 27.3787 35.3888C28.0812 35.4002 28.7707 35.2065 29.3559 34.8334C29.9402 34.4608 30.393 33.9268 30.6544 33.302C31.0202 32.5062 31.1919 31.6407 31.1565 30.7715C31.135 30.1369 31.099 29.4974 31.0632 28.8612C31.0456 28.5491 31.0281 28.2377 31.0124 27.9282C31.0045 27.6178 30.8978 27.3172 30.7067 27.0667C30.5885 26.9083 30.4311 26.7806 30.2487 26.695Z" fill="#3A3B7B"/>
<path d="M36.7174 31.4763C36.6988 31.4989 36.6793 31.5223 36.6589 31.5466C36.5102 30.7235 36.3725 29.9007 36.2345 29.0766C36.185 28.781 36.1352 28.4841 36.0852 28.188L36.0796 28.155L36.0613 28.1264C36.0269 28.0727 36.0234 28.0201 36.0234 27.9077V27.8948L36.0214 27.8819C35.984 27.65 35.8747 27.4341 35.7077 27.2626C35.5412 27.0916 35.325 26.9726 35.0871 26.9209C34.8496 26.8647 34.6 26.8771 34.3698 26.9565C34.1402 27.0358 33.94 27.1783 33.7943 27.3662C33.6732 27.5103 33.5739 27.6702 33.4995 27.841C33.3306 28.2091 33.1603 28.578 32.9895 28.948L32.9865 28.9544C32.5601 29.878 32.1308 30.8077 31.7139 31.7448L31.7127 31.7479C31.4568 32.3555 31.2456 32.9957 31.0351 33.634C30.993 33.7614 30.951 33.8887 30.9086 34.0157C30.8326 34.2172 30.7994 34.4311 30.8108 34.645C30.797 34.8364 30.8447 35.0274 30.9477 35.1921C31.0527 35.3602 31.21 35.4924 31.3974 35.5703C31.596 35.6538 31.8181 35.6716 32.0284 35.6207C32.2383 35.5699 32.4247 35.4536 32.5583 35.2902C32.7288 35.0888 32.8755 34.8692 32.9952 34.6365C33.3483 33.9433 33.6857 33.2416 34.0216 32.543C34.1516 32.2728 34.2779 32.0308 34.4216 31.7672C34.4315 31.7997 34.4416 31.8314 34.452 31.8631C34.6026 32.4995 34.8568 33.109 35.2052 33.6694C35.2711 33.7881 35.363 33.8918 35.4744 33.9735C35.5872 34.0561 35.7174 34.1141 35.8559 34.1436C35.9944 34.1731 36.138 34.1732 36.2766 34.144C36.415 34.1149 36.5455 34.0568 36.6584 33.9745L36.8818 33.8141L38.6156 32.4124L38.5131 33.0395C38.3724 33.9015 38.2327 34.7564 38.0843 35.6114C37.9872 35.9904 37.9874 36.3862 38.0847 36.7651C38.1269 36.9783 38.2343 37.1746 38.3933 37.3289C38.5537 37.4845 38.759 37.5902 38.9827 37.6324C39.2064 37.6745 39.4382 37.6512 39.6479 37.5653C39.8545 37.4808 40.0303 37.3393 40.1532 37.1591C40.4391 36.8187 40.617 36.4065 40.6659 35.9717C40.7395 35.3577 40.8226 34.7353 40.9058 34.1131C41.0016 33.396 41.0974 32.679 41.1783 31.9758L41.1786 31.9737C41.2565 31.2039 41.2942 30.431 41.2915 29.6576C41.3086 29.4132 41.2452 29.1698 41.1101 28.9617C40.9746 28.7529 40.7738 28.5906 40.5365 28.4977C40.2897 28.39 40.0134 28.3612 39.7483 28.4156C39.4849 28.4697 39.2464 28.603 39.0676 28.796C38.7478 29.0799 38.4478 29.3836 38.1695 29.7053L38.1676 29.7075C37.8638 30.0709 37.562 30.4414 37.2622 30.8095C37.0799 31.0332 36.8982 31.2565 36.7174 31.4763Z" fill="#3A3B7B"/>
</g>
<defs>
<clipPath id="clip0_211_827">
<rect width="47" height="29" fill="white" transform="translate(1 9.84668)"/>
</clipPath>
</defs>
</svg>
